<?xml version="1.0" encoding="UTF-8"?>
<svg id="Layer_1" data-name="Layer 1" xmlns="http://www.w3.org/2000/svg" viewBox="0 0 116.72 115.47">
  <defs>
    <style>
      .cls-1 {
        fill: #026481;
        stroke-width: 0px;
      }
    </style>
  </defs>
  <path class="cls-1" d="m68.37,50.6c11.9-5.24,23.38-11.19,34.62-17.8-.14.31-.26.62-.42.92-1.82,3.26-3.64,6.52-5.47,9.78-1.56,2.79-4.14,3.87-7.13,4.35-5.98.96-11.94,1.99-17.92,2.97-1.15.19-2.32.26-3.48.51,4.14.65,8.22-.12,12.3-.57,4.11-.45,8.2-1,12.42-1.51-.19.23-.32.44-.5.59-2.25,1.93-4.51,3.84-6.75,5.79-1.58,1.37-3.3,1.61-5.27.94-3.79-1.29-7.6-2.51-11.41-3.74-.37-.12-.8-.08-1.19-.12-.02.1-.04.19-.06.29.99.43,2,.81,2.97,1.29,2.52,1.24,4.89,2.71,6.85,4.75,1.99,2.08,2.24,4.24.59,6.56-1.75,2.46-3.63,4.83-5.52,7.33.09-2.25.29-4.34.23-6.42-.15-5.03-2.21-9.3-5.54-13-1.17-1.29-1.92-1.03-2.55.87-1.07,3.22-1.97,6.5-2.95,9.75-1.3,4.27-2.61,8.54-4.19,12.87-2.51-8.07-5.01-16.14-7.52-24.21-.13-.06-.26-.11-.39-.17-.65.51-1.37.94-1.93,1.54-3.06,3.32-4.95,7.23-5.22,11.76-.13,2.09.21,4.22.34,6.33,0,.15.04.3-.11.54-.79-.99-1.61-1.96-2.37-2.96-1.1-1.45-2.18-2.91-3.25-4.38-1.41-1.94-1.32-4.13.28-5.92,1.96-2.19,4.33-3.83,6.99-5.06,1.12-.52,2.25-1,3.37-1.5-.01-.09-.03-.18-.04-.27-.54.1-1.1.14-1.62.3-3.49,1.11-7.01,2.16-10.46,3.4-2.57.93-4.66.57-6.65-1.36-1.81-1.75-3.83-3.3-5.75-4.94-.27-.23-.52-.49-.86-.81,3.8.48,7.46.99,11.14,1.39,3.71.41,7.44.72,11.16,1.04.63.05,1.29-.03,1.9-.18.4-.1.73-.43,1.27-.77-1.16-.69-2.07-1.25-2.99-1.77-9.53-5.44-19.07-10.87-28.59-16.32-3.11-1.78-5.43-4.28-6.56-7.76-1.19-3.67-2.37-7.35-3.56-11.02-.05-.15-.05-.31-.11-.68.28.3.43.43.54.59,5.43,7.71,12.45,13.64,20.55,18.37,5.03,2.93,10.02,5.93,15.08,8.82,3.3,1.89,5.39,4.7,6.63,8.21.25.7.48,1.4.7,2.11.17.55.43.75,1.04.56,3.13-.98,5.08-5.38,3.59-8.29-.46-.9-1.25-1.49-2.32-1.56-.56-.04-1.12-.07-1.67-.1-.08-1.22.62-1.97,1.77-2.22.86-.19,1.68-.58,2.53-.83.74-.22,1.51-.58,2.24-.51,3.98.36,7.1,2.74,6.63,7.09-.25,2.33.49,4.48,2.14,6.52.21-.53.36-.85.47-1.18.95-2.94,2.02-5.87,4.47-7.88,1.7-1.39,3.72-2.41,5.63-3.54,4.83-2.88,9.74-5.63,14.5-8.62,5.7-3.58,10.87-7.84,15.17-13.06,1.03-1.25,1.99-2.54,2.99-3.81.18-.22.37-.44.75-.55-.42,1.43-.81,2.87-1.27,4.29-.73,2.27-1.47,4.54-2.25,6.79-1.3,3.77-3.83,6.54-7.24,8.49-9.73,5.56-19.5,11.07-29.24,16.61-.54.31-1.01.74-1.51,1.12Zm-10.64-9.57c.05-.12.09-.23.14-.35-.47-.27-.92-.61-1.42-.76-.23-.07-.57.25-.87.39.22.24.41.62.68.69.47.11.98.03,1.47.03Z"/>
  <path class="cls-1" d="m80.21,83.59c-1.86,0-3.47.19-5.02-.04-3.29-.48-4.85-3.01-6.21-5.67-.59-1.16-1.09-2.37-1.65-3.6-.91.39-1.15.83-.78,1.75,1.66,4.15,3.97,7.85,7.15,11.01.07.07.11.17.28.46-1.25-.05-2.34-.2-3.36-.67-1.72-.79-2.87-2.14-3.43-3.9-.63-1.98-1.07-4.01-1.59-6.03-.08-.31-.16-.62-.28-1.12-2.03,1.87-3.91,3.61-5.74,5.31,1.07-2.66,2.23-5.33,3.23-8.06,1.5-4.12,2.42-8.39,2.74-12.77.15-2.05.27-4.09.42-6.14.02-.23.19-.46.29-.69.21.12.53.19.62.38,2,3.97,4.07,7.92,4.22,12.5.07,2.17-.61,4.11-1.93,5.81-.42.55-.41.96-.03,1.53,2.49,3.75,5.75,6.66,9.58,8.96.45.27.88.58,1.5.99Z"/>
  <path class="cls-1" d="m51.66,76.56c-.74,2.42-1.34,4.86-2.23,7.18-.96,2.48-3.77,3.98-6.3,3.64,1.09-1.33,2.31-2.55,3.21-3.97,1.42-2.27,2.62-4.67,3.9-7.03.11-.2.19-.47.14-.67-.07-.3-.27-.57-.42-.86-.25.17-.61.29-.74.52-.87,1.59-1.62,3.25-2.56,4.79-1.48,2.44-3.68,3.65-6.59,3.52-1.04-.05-2.08,0-3.22-.17.62-.39,1.23-.8,1.85-1.18,3.49-2.13,6.44-4.84,8.81-8.19.43-.6.53-1-.13-1.6-2.34-2.12-2.61-4.93-2.19-7.82.56-3.95,2.25-7.51,4.09-11,.08-.15.19-.27.31-.4.04-.04.12-.05.4-.16.1.44.23.85.26,1.26.28,3.25.34,6.53.85,9.74.89,5.57,2.7,10.87,5.23,15.93.13.27.24.54.25.93-1.68-1.53-3.37-3.06-4.91-4.46Z"/>
  <path class="cls-1" d="m13.16,32.8c11.17,6.51,22.52,12.49,34.19,17.88-.04.15-.08.3-.13.45-1.1-.09-2.21-.11-3.29-.28-5.87-.97-11.73-1.98-17.6-2.96-3.56-.59-6.32-2.24-8.01-5.58-1.49-2.94-3.16-5.78-4.75-8.67-.15-.27-.28-.56-.42-.84Z"/>
  <path class="cls-1" d="m53.03,79.21c2.32,2.13,2.91,4.67,1.85,7.6-1.03,2.83-2.24,5.56-4.3,7.82-1.06,1.17-2.37,1.87-3.98,1.91-1.48.03-2.96,0-4.54-.16.45-.29.9-.59,1.36-.87,3.72-2.27,6.94-5.06,9.4-8.71,1.5-2.23,1.62-4.49.53-6.88-.11-.24-.22-.48-.32-.72Z"/>
  <path class="cls-1" d="m62.95,79.37c-.05.19-.07.39-.16.56-1.52,3.05-.56,5.64,1.4,8.11,2.41,3.05,5.26,5.56,8.61,7.52.41.24.79.52,1.17.78.04.03.05.11.08.2-1.62,0-3.23.11-4.82-.03-1.76-.16-3.16-1.15-4.22-2.53-2.1-2.73-3.57-5.8-4.18-9.18-.38-2.08.52-3.93,2.1-5.43Z"/>
  <path class="cls-1" d="m58.2,90.36c.31,1.39.66,2.76.92,4.16.38,2.1,1.17,4.16.68,6.36-.3,1.35-.74,2.63-1.8,4.03-.51-1.08-.98-1.93-1.31-2.84-.57-1.55-.57-3.16-.22-4.76.49-2.31,1-4.62,1.5-6.93.08,0,.17,0,.25,0Z"/>
  <path class="cls-1" d="m56.54,86.61c.15,3.64-.51,7.12-2.15,10.34-1.22,2.4-3.34,3.46-6.16,3.34,4.13-3.76,6.17-8.74,8.31-13.68Z"/>
  <path class="cls-1" d="m59.66,86.45c1.76,5.2,4.33,9.91,8.33,13.79-1.4.38-3.69-.38-4.86-1.46-1.4-1.3-2.1-2.98-2.5-4.76-.56-2.46-.92-4.97-1.36-7.46.13-.04.26-.07.39-.11Z"/>
  <path class="cls-1" d="m57.73,41.03c-.49,0-1.01.08-1.47-.03-.27-.06-.45-.45-.68-.69.29-.14.64-.46.87-.39.5.15.95.5,1.42.76-.05.12-.09.23-.14.35Z"/>
</svg>