<?xml version="1.0" encoding="UTF-8"?>
<svg id="Layer_1" data-name="Layer 1" xmlns="http://www.w3.org/2000/svg" viewBox="0 0 116.72 115.47">
  <defs>
    <style>
      .cls-1 {
        font-family: NHaasGroteskTXPro-75Bd, 'Neue Haas Grotesk Text Pro';
      }

      .cls-2 {
        fill: #006480;
        font-size: 27.52px;
        letter-spacing: .06em;
      }

      .cls-3 {
        fill: #026481;
        stroke-width: 0px;
      }

      .cls-4 {
        font-family: NHaasGroteskTXPro-76BdIt, 'Neue Haas Grotesk Text Pro';
        font-style: italic;
      }
    </style>
  </defs>
  <g>
    <path class="cls-3" d="m66.39,38.17c9.37-4.12,18.41-8.81,27.26-14.02-.11.24-.21.49-.33.72-1.43,2.57-2.87,5.14-4.31,7.71-1.23,2.19-3.26,3.05-5.61,3.43-4.71.76-9.41,1.57-14.11,2.34-.91.15-1.83.2-2.74.4,3.26.51,6.47-.1,9.69-.45,3.23-.36,6.46-.78,9.78-1.19-.15.18-.25.34-.4.47-1.77,1.52-3.55,3.03-5.32,4.56-1.24,1.08-2.6,1.27-4.15.74-2.98-1.02-5.98-1.98-8.98-2.94-.29-.09-.63-.07-.94-.09-.02.08-.03.15-.05.23.78.34,1.58.64,2.34,1.02,1.99.97,3.85,2.13,5.4,3.74,1.56,1.64,1.76,3.34.46,5.17-1.38,1.94-2.86,3.8-4.34,5.77.07-1.77.23-3.42.18-5.06-.12-3.96-1.74-7.33-4.36-10.24-.92-1.02-1.51-.81-2.01.68-.84,2.54-1.55,5.12-2.33,7.68-1.02,3.36-2.06,6.72-3.3,10.14-1.97-6.36-3.95-12.71-5.92-19.07-.1-.04-.2-.09-.31-.13-.51.4-1.08.74-1.52,1.22-2.41,2.62-3.9,5.69-4.11,9.26-.1,1.65.16,3.32.26,4.98,0,.12.03.24-.08.43-.62-.78-1.27-1.54-1.87-2.33-.87-1.14-1.72-2.29-2.56-3.45-1.11-1.53-1.04-3.25.22-4.67,1.54-1.73,3.41-3.02,5.5-3.98.88-.41,1.77-.79,2.66-1.18-.01-.07-.02-.14-.03-.21-.43.08-.87.11-1.28.24-2.75.87-5.52,1.7-8.24,2.68-2.02.73-3.67.45-5.24-1.07-1.43-1.38-3.01-2.6-4.53-3.89-.21-.18-.41-.39-.68-.64,3,.38,5.88.78,8.77,1.09,2.92.32,5.86.57,8.79.82.49.04,1.02-.02,1.5-.14.31-.08.58-.34,1-.61-.91-.54-1.63-.98-2.36-1.4-7.51-4.29-15.02-8.56-22.52-12.86-2.45-1.41-4.28-3.37-5.16-6.11-.94-2.89-1.87-5.79-2.8-8.68-.04-.12-.04-.24-.09-.53.22.24.34.34.42.46,4.27,6.08,9.8,10.74,16.18,14.46,3.96,2.31,7.9,4.67,11.87,6.95,2.6,1.49,4.24,3.7,5.22,6.47.19.55.38,1.1.55,1.66.13.43.34.59.82.44,2.47-.77,4-4.24,2.83-6.53-.36-.71-.98-1.17-1.83-1.23-.44-.03-.88-.05-1.32-.08-.06-.96.48-1.55,1.4-1.74.68-.15,1.32-.46,1.99-.65.58-.17,1.19-.46,1.76-.4,3.13.28,5.59,2.16,5.22,5.58-.2,1.84.39,3.53,1.69,5.13.17-.42.28-.67.37-.93.74-2.31,1.59-4.63,3.52-6.2,1.34-1.1,2.93-1.9,4.43-2.79,3.8-2.27,7.67-4.43,11.42-6.79,4.49-2.82,8.56-6.17,11.95-10.29.81-.98,1.57-2,2.36-3,.14-.18.29-.34.59-.43-.33,1.13-.64,2.26-1,3.38-.57,1.79-1.16,3.58-1.77,5.35-1.03,2.97-3.02,5.15-5.71,6.69-7.66,4.38-15.36,8.72-23.03,13.08-.42.24-.79.58-1.19.88Zm-8.38-7.54c.04-.09.07-.18.11-.27-.37-.21-.72-.48-1.12-.6-.18-.05-.45.19-.68.31.18.19.32.49.53.54.37.09.77.03,1.16.03Z"/>
    <path class="cls-3" d="m75.71,64.15c-1.47,0-2.73.15-3.95-.03-2.59-.37-3.82-2.37-4.89-4.47-.47-.91-.86-1.87-1.3-2.83-.71.3-.9.65-.61,1.38,1.31,3.27,3.13,6.19,5.63,8.67.05.05.08.13.22.36-.99-.04-1.84-.16-2.65-.53-1.35-.62-2.26-1.69-2.7-3.07-.49-1.56-.84-3.16-1.26-4.75-.06-.24-.12-.49-.22-.88-1.6,1.48-3.08,2.85-4.52,4.18.84-2.09,1.76-4.2,2.54-6.35,1.18-3.25,1.91-6.6,2.16-10.06.12-1.61.21-3.22.33-4.83.01-.18.15-.36.23-.54.17.1.42.15.49.3,1.58,3.12,3.2,6.24,3.33,9.85.06,1.71-.48,3.23-1.52,4.57-.33.43-.32.76-.03,1.2,1.96,2.95,4.53,5.24,7.54,7.06.35.21.69.45,1.18.78Z"/>
    <path class="cls-3" d="m53.23,58.62c-.58,1.91-1.05,3.83-1.76,5.66-.76,1.95-2.97,3.13-4.96,2.86.86-1.05,1.82-2.01,2.52-3.13,1.12-1.79,2.06-3.68,3.07-5.54.08-.16.15-.37.11-.53-.06-.24-.22-.45-.33-.68-.2.14-.48.23-.58.41-.69,1.25-1.28,2.56-2.02,3.77-1.17,1.92-2.9,2.88-5.19,2.77-.82-.04-1.64,0-2.54-.13.49-.31.97-.63,1.46-.93,2.75-1.68,5.08-3.81,6.94-6.45.33-.47.41-.79-.11-1.26-1.85-1.67-2.05-3.88-1.73-6.16.44-3.11,1.77-5.91,3.22-8.66.06-.11.15-.21.24-.31.03-.03.09-.04.32-.13.07.35.18.67.21,1,.22,2.56.27,5.14.67,7.67.7,4.38,2.13,8.56,4.12,12.54.1.21.19.43.2.73-1.33-1.21-2.65-2.41-3.87-3.51Z"/>
    <path class="cls-3" d="m22.9,24.15c8.79,5.13,17.73,9.84,26.92,14.08-.03.12-.07.24-.1.36-.86-.07-1.74-.08-2.59-.22-4.62-.76-9.24-1.56-13.86-2.33-2.81-.47-4.98-1.76-6.31-4.39-1.17-2.31-2.49-4.55-3.74-6.83-.12-.22-.22-.44-.33-.66Z"/>
    <path class="cls-3" d="m54.31,60.71c1.83,1.68,2.3,3.68,1.45,5.99-.81,2.23-1.76,4.38-3.38,6.16-.84.92-1.87,1.48-3.13,1.5-1.16.03-2.33,0-3.57-.12.36-.23.71-.46,1.07-.68,2.93-1.79,5.47-3.99,7.4-6.86,1.18-1.75,1.28-3.53.42-5.42-.09-.19-.17-.38-.26-.56Z"/>
    <path class="cls-3" d="m62.12,60.83c-.04.15-.06.31-.12.44-1.2,2.4-.44,4.44,1.1,6.38,1.9,2.4,4.14,4.38,6.78,5.93.32.19.62.41.92.62.03.02.04.09.06.16-1.27,0-2.54.09-3.79-.02-1.38-.13-2.49-.91-3.32-1.99-1.65-2.15-2.81-4.57-3.29-7.23-.3-1.64.41-3.1,1.66-4.28Z"/>
    <path class="cls-3" d="m58.38,69.49c.24,1.09.52,2.18.72,3.28.3,1.65.92,3.27.53,5.01-.24,1.06-.58,2.07-1.42,3.17-.4-.85-.77-1.52-1.03-2.24-.45-1.22-.45-2.49-.18-3.75.39-1.82.79-3.64,1.18-5.46.07,0,.13,0,.2,0Z"/>
    <path class="cls-3" d="m57.08,66.54c.12,2.87-.4,5.61-1.7,8.15-.96,1.89-2.63,2.72-4.85,2.63,3.25-2.96,4.86-6.88,6.55-10.78Z"/>
    <path class="cls-3" d="m59.53,66.41c1.39,4.09,3.41,7.8,6.56,10.86-1.1.3-2.91-.3-3.83-1.15-1.1-1.02-1.66-2.35-1.97-3.75-.44-1.94-.72-3.92-1.07-5.88.1-.03.21-.06.31-.09Z"/>
    <path class="cls-3" d="m58.01,30.63c-.39,0-.79.06-1.16-.03-.21-.05-.36-.35-.53-.54.23-.11.5-.36.68-.31.4.12.75.39,1.12.6-.04.09-.07.18-.11.27Z"/>
  </g>
  <text class="cls-2" transform="translate(22.14 104.9)"><tspan class="cls-1" x="0" y="0">BN</tspan><tspan class="cls-4" x="43.5" y="0">TI</tspan></text>
</svg>