<?xml version="1.0" encoding="UTF-8"?>
<svg id="Layer_1" data-name="Layer 1" xmlns="http://www.w3.org/2000/svg" viewBox="0 0 500 500">
  <defs>
    <style>
      .cls-1 {
        fill: #e9eaec;
        stroke-width: 0px;
      }
    </style>
  </defs>
  <path class="cls-1" d="m248.23,377.07c.99,0,1.97-.25,2.96-.74.99-.49,1.72-.99,2.22-1.48l121.18-121.18c2.96-2.96,5.11-6.28,6.47-9.98,1.35-3.69,2.03-7.39,2.03-11.08,0-3.94-.68-7.7-2.03-11.27-1.35-3.57-3.51-6.71-6.47-9.42l-62.81-62.81c-2.71-2.96-5.85-5.11-9.42-6.47-3.57-1.35-7.33-2.03-11.27-2.03-3.69,0-7.39.68-11.08,2.03s-7.02,3.51-9.98,6.47l-4.06,4.06,27.34,27.71c3.69,3.45,6.4,7.39,8.13,11.82,1.72,4.43,2.59,9.11,2.59,14.04,0,10.34-3.51,19.03-10.53,26.05-7.02,7.02-15.7,10.53-26.05,10.53-4.93,0-9.67-.86-14.22-2.59-4.56-1.72-8.56-4.31-12.01-7.76l-27.71-27.34-64.65,64.65c-.74.74-1.29,1.54-1.66,2.4s-.55,1.79-.55,2.77c0,1.97.74,3.76,2.22,5.36s3.2,2.4,5.17,2.4c.99,0,1.97-.25,2.96-.74.99-.49,1.72-.99,2.22-1.48l50.25-50.25,20.69,20.69-49.88,50.25c-.74.74-1.29,1.54-1.66,2.4s-.55,1.79-.55,2.77c0,1.97.74,3.69,2.22,5.17s3.2,2.22,5.17,2.22c.99,0,1.97-.25,2.96-.74.99-.49,1.72-.99,2.22-1.48l50.25-49.88,20.69,20.69-49.88,50.25c-.74.49-1.29,1.23-1.66,2.22s-.55,1.97-.55,2.96c0,1.97.74,3.69,2.22,5.17s3.2,2.22,5.17,2.22c.99,0,1.91-.18,2.77-.55.86-.37,1.66-.92,2.4-1.66l50.25-49.88,20.69,20.69-50.25,50.25c-.74.74-1.29,1.54-1.66,2.4s-.55,1.79-.55,2.77c0,1.97.8,3.69,2.4,5.17,1.6,1.48,3.39,2.22,5.36,2.22Zm-.37,29.56c-9.11,0-17.18-3.02-24.2-9.05-7.02-6.03-11.15-13.61-12.38-22.72-8.37-1.23-15.39-4.68-21.06-10.34-5.66-5.66-9.11-12.68-10.34-21.06-8.37-1.23-15.33-4.74-20.87-10.53s-8.93-12.75-10.16-20.87c-9.36-1.23-16.99-5.3-22.91-12.19s-8.87-15.02-8.87-24.38c0-4.93.92-9.67,2.77-14.22s4.5-8.56,7.94-12.01l85.71-85.34,48.4,48.4c.49.74,1.23,1.29,2.22,1.66.99.37,1.97.55,2.96.55,2.22,0,4.06-.68,5.54-2.03s2.22-3.14,2.22-5.36c0-.99-.18-1.97-.55-2.96s-.92-1.72-1.66-2.22l-52.83-52.83c-2.71-2.96-5.85-5.11-9.42-6.47-3.57-1.35-7.33-2.03-11.27-2.03-3.69,0-7.39.68-11.08,2.03s-7.02,3.51-9.98,6.47l-52.09,52.46c-2.22,2.22-4.06,4.8-5.54,7.76-1.48,2.96-2.46,5.91-2.96,8.87-.49,2.96-.49,5.97,0,9.05.49,3.08,1.48,5.97,2.96,8.68l-21.43,21.43c-4.19-5.66-7.27-11.88-9.24-18.66-1.97-6.77-2.71-13.61-2.22-20.5.49-6.9,2.22-13.61,5.17-20.14,2.96-6.53,7.02-12.38,12.19-17.55l52.09-52.09c5.91-5.66,12.5-9.98,19.77-12.93,7.27-2.96,14.72-4.43,22.35-4.43s15.09,1.48,22.35,4.43c7.27,2.96,13.73,7.27,19.4,12.93l4.06,4.06,4.06-4.06c5.91-5.66,12.5-9.98,19.77-12.93,7.27-2.96,14.72-4.43,22.35-4.43s15.09,1.48,22.35,4.43c7.27,2.96,13.73,7.27,19.4,12.93l62.44,62.44c5.66,5.66,9.98,12.19,12.93,19.58s4.43,14.9,4.43,22.54-1.48,15.09-4.43,22.35-7.27,13.73-12.93,19.4l-121.18,120.81c-3.45,3.45-7.45,6.16-12.01,8.13-4.56,1.97-9.3,2.96-14.22,2.96Z"/>
</svg>