<?xml version="1.0" encoding="UTF-8"?>
<svg id="Layer_1" data-name="Layer 1" xmlns="http://www.w3.org/2000/svg" viewBox="0 0 500 500">
  <defs>
    <style>
      .cls-1 {
        fill: #e9eaec;
        stroke-width: 0px;
      }
    </style>
  </defs>
  <path class="cls-1" d="m261.09,428.63c-39.38-9.92-71.9-32.51-97.54-67.79-25.64-35.27-38.46-74.45-38.46-117.51v-103.7l136-51,136,51v103.7c0,43.07-12.82,82.24-38.46,117.51-25.64,35.27-58.15,57.87-97.54,67.79Zm0-35.7c29.47-9.35,53.83-28.05,73.1-56.1,19.27-28.05,28.9-59.22,28.9-93.5v-80.32l-102-38.25-102,38.25v80.32c0,34.28,9.63,65.45,28.9,93.5,19.27,28.05,43.63,46.75,73.1,56.1Z"/>
</svg>